<svg width="148" height="126" viewBox="0 0 148 126" fill="none" xmlns="http://www.w3.org/2000/svg">
<path d="M34 24C34 10.7452 44.7452 0 58 0V82H34V24Z" fill="#E5DFFB"/>
<path d="M62 0H86V32H62V0Z" fill="#7646D8"/>
<rect x="62" y="35" width="24" height="47" fill="#E5DFFB"/>
<path d="M90 12H114V42C114 55.2548 103.255 66 90 66V12Z" fill="#A294DB"/>
<path d="M2.30056 125V100.254H11.1189C13.5913 100.254 15.7275 100.75 17.5276 101.741C19.3277 102.721 20.7063 104.139 21.6634 105.996C22.6318 107.853 23.116 110.052 23.116 112.593C23.116 115.156 22.6318 117.372 21.6634 119.241C20.6949 121.098 19.305 122.522 17.4934 123.513C15.6819 124.504 13.5229 125 11.0164 125H2.30056ZM10.8113 120.591C13.2039 120.591 14.9983 119.941 16.1946 118.643C17.3909 117.344 17.989 115.327 17.989 112.593C17.989 109.881 17.3909 107.882 16.1946 106.594C15.0097 105.307 13.2267 104.663 10.8455 104.663H7.42751V120.591H10.8113Z" fill="#7646D8"/>
<path d="M26.4336 100.254H36.1406C37.9863 100.254 39.5757 100.607 40.9087 101.313C42.2417 102.008 43.2557 102.988 43.9507 104.253C44.6457 105.506 44.9931 106.953 44.9931 108.594C44.9931 110.246 44.6343 111.704 43.9165 112.969C43.2101 114.222 42.179 115.196 40.8232 115.891C39.4788 116.586 37.8724 116.934 36.0039 116.934H31.5605V125H26.4336V100.254ZM35.1836 112.798C36.6647 112.798 37.7869 112.422 38.5503 111.67C39.3136 110.907 39.6953 109.881 39.6953 108.594C39.6953 107.318 39.3136 106.309 38.5503 105.569C37.7869 104.828 36.6647 104.458 35.1836 104.458H31.5605V112.798H35.1836ZM52.7883 125H47.7297V100.254H52.7883V125ZM55.4223 119.805C55.4223 117.891 56.066 116.489 57.3534 115.601C58.6409 114.712 60.2986 114.211 62.3266 114.097C63.5798 114.017 65.1179 113.937 66.9408 113.857V112.354C66.918 111.579 66.6503 110.975 66.1376 110.542C65.6249 110.109 64.9014 109.893 63.9672 109.893C63.1241 109.893 62.4348 110.075 61.8993 110.439C61.3638 110.804 61.0277 111.305 60.891 111.943H56.0717C56.1742 110.85 56.5502 109.87 57.1996 109.004C57.8604 108.138 58.7776 107.454 59.9511 106.953C61.1246 106.452 62.5089 106.201 64.1039 106.201C65.5167 106.201 66.8155 106.423 68.0004 106.868C69.1967 107.312 70.1537 108.007 70.8715 108.953C71.6006 109.887 71.9652 111.066 71.9652 112.49V125H67.1801V122.437H67.0434C66.5534 123.337 65.8528 124.049 64.9413 124.573C64.0412 125.085 62.9304 125.342 61.6088 125.342C60.4011 125.342 59.3301 125.137 58.3959 124.727C57.473 124.305 56.7439 123.678 56.2084 122.847C55.6843 122.015 55.4223 121.001 55.4223 119.805ZM60.2758 119.668C60.2758 120.363 60.5264 120.904 61.0277 121.292C61.5404 121.667 62.2126 121.855 63.0443 121.855C63.7963 121.855 64.4685 121.702 65.0609 121.394C65.6648 121.086 66.1319 120.665 66.4623 120.129C66.7927 119.594 66.9522 119.007 66.9408 118.369V117.019C66.4053 117.03 65.7445 117.059 64.9584 117.104C64.1723 117.15 63.5684 117.196 63.1469 117.241C62.2582 117.332 61.5575 117.583 61.0448 117.993C60.5321 118.403 60.2758 118.962 60.2758 119.668ZM80.4781 125H75.4195V106.44H80.2389V109.688H80.4439C80.8769 108.594 81.5776 107.739 82.546 107.124C83.5144 106.509 84.6708 106.201 86.0152 106.201C87.3027 106.201 88.4306 106.48 89.399 107.039C90.3674 107.597 91.1137 108.406 91.6378 109.465C92.1619 110.514 92.4182 111.75 92.4068 113.174V125H87.3824V114.062C87.3824 112.923 87.0862 112.029 86.4938 111.379C85.9013 110.73 85.081 110.405 84.0328 110.405C82.9505 110.405 82.0846 110.747 81.4352 111.431C80.7971 112.114 80.4781 113.06 80.4781 114.268V125ZM100.988 125H95.9295V106.44H100.749V109.688H100.954C101.387 108.594 102.088 107.739 103.056 107.124C104.024 106.509 105.181 106.201 106.525 106.201C107.813 106.201 108.941 106.48 109.909 107.039C110.877 107.597 111.624 108.406 112.148 109.465C112.672 110.514 112.928 111.75 112.917 113.174V125H107.892V114.062C107.892 112.923 107.596 112.029 107.004 111.379C106.411 110.73 105.591 110.405 104.543 110.405C103.46 110.405 102.595 110.747 101.945 111.431C101.307 112.114 100.988 113.06 100.988 114.268V125ZM124.848 125.376C122.968 125.376 121.339 124.989 119.96 124.214C118.593 123.439 117.539 122.334 116.798 120.898C116.058 119.451 115.688 117.754 115.688 115.806C115.688 113.903 116.052 112.228 116.781 110.781C117.522 109.323 118.57 108.195 119.926 107.397C121.282 106.6 122.854 106.201 124.643 106.201C126.306 106.201 127.793 106.554 129.103 107.261C130.425 107.956 131.461 109.01 132.213 110.422C132.977 111.835 133.358 113.561 133.358 115.601V117.036H120.678C120.678 117.959 120.849 118.762 121.19 119.446C121.544 120.129 122.039 120.659 122.677 121.035C123.327 121.4 124.084 121.582 124.95 121.582C125.782 121.582 126.5 121.417 127.104 121.086C127.707 120.745 128.14 120.283 128.402 119.702H133.222C132.982 120.841 132.493 121.838 131.752 122.693C131.011 123.547 130.049 124.208 128.864 124.675C127.69 125.142 126.352 125.376 124.848 125.376ZM128.573 113.857C128.573 113.117 128.408 112.456 128.078 111.875C127.759 111.283 127.309 110.821 126.728 110.491C126.147 110.16 125.486 109.995 124.745 109.995C123.993 109.995 123.31 110.166 122.694 110.508C122.091 110.85 121.606 111.317 121.242 111.909C120.889 112.502 120.701 113.151 120.678 113.857H128.573ZM136.129 106.44H141.017V109.653H141.222C141.552 108.525 142.116 107.665 142.914 107.073C143.711 106.469 144.64 106.167 145.699 106.167C146.28 106.167 146.816 106.224 147.306 106.338V110.85C147.055 110.781 146.719 110.719 146.298 110.662C145.876 110.605 145.494 110.576 145.153 110.576C144.401 110.576 143.723 110.741 143.119 111.072C142.515 111.402 142.042 111.864 141.7 112.456C141.359 113.037 141.188 113.698 141.188 114.438V125H136.129V106.44Z" fill="black"/>
</svg>
