<svg width="350" height="44" viewBox="0 0 350 44" fill="none" xmlns="http://www.w3.org/2000/svg">
<rect width="350" height="44" rx="10" fill="#4A76E2"/>
<path d="M117.915 30.4375H115.993V16.2188H117.915V30.4375ZM115.04 29.7656H113.149V23.1719H111.774V21.3906H113.149V16.5H115.04V29.7656ZM112.103 19.4375H111.196V25.3516C111.696 25.3047 112.076 25.2604 112.337 25.2188L112.478 26.6562C111.483 26.8698 110.386 27.013 109.188 27.0859C107.996 27.1536 106.78 27.1875 105.54 27.1875L105.321 25.5469H106.509V19.4375H105.587V17.8281H112.103V19.4375ZM108.274 25.5156C108.337 25.5156 108.399 25.513 108.462 25.5078C108.524 25.5026 108.587 25.5 108.649 25.5C108.806 25.5 109.05 25.4896 109.384 25.4688V19.4375H108.274V25.5156ZM130.804 30.4688H128.788V16.2188H130.804V30.4688ZM123.085 17.2188C123.799 17.2188 124.437 17.4271 124.999 17.8438C125.567 18.2604 126.012 18.8516 126.335 19.6172C126.658 20.3828 126.82 21.2708 126.82 22.2812C126.82 23.3021 126.658 24.1979 126.335 24.9688C126.012 25.7344 125.567 26.3255 124.999 26.7422C124.437 27.1536 123.799 27.3594 123.085 27.3594C122.356 27.3594 121.705 27.1536 121.132 26.7422C120.559 26.3255 120.111 25.7344 119.788 24.9688C119.471 24.1979 119.314 23.3021 119.32 22.2812C119.314 21.2708 119.471 20.3828 119.788 19.6172C120.111 18.8516 120.559 18.2604 121.132 17.8438C121.705 17.4271 122.356 17.2188 123.085 17.2188ZM123.085 19.0156C122.715 19.0156 122.39 19.1432 122.109 19.3984C121.833 19.6484 121.619 20.0182 121.468 20.5078C121.317 20.9974 121.241 21.5885 121.241 22.2812C121.241 22.9792 121.317 23.5729 121.468 24.0625C121.619 24.5521 121.833 24.9219 122.109 25.1719C122.39 25.4219 122.715 25.5469 123.085 25.5469C123.45 25.5469 123.767 25.4219 124.038 25.1719C124.309 24.9167 124.52 24.5443 124.671 24.0547C124.822 23.5651 124.898 22.974 124.898 22.2812C124.898 21.5938 124.822 21.0052 124.671 20.5156C124.52 20.0208 124.306 19.6484 124.03 19.3984C123.76 19.1432 123.445 19.0156 123.085 19.0156ZM139.802 18.0938C139.802 18.8021 140.003 19.4948 140.404 20.1719C140.81 20.849 141.396 21.4375 142.162 21.9375C142.932 22.4375 143.833 22.776 144.865 22.9531L143.99 24.6094C142.771 24.3698 141.708 23.9245 140.802 23.2734C139.901 22.6224 139.216 21.8307 138.747 20.8984C138.268 21.8255 137.576 22.6146 136.669 23.2656C135.768 23.9167 134.714 24.3646 133.505 24.6094L132.646 22.9531C133.662 22.7708 134.55 22.4297 135.31 21.9297C136.07 21.4297 136.654 20.8411 137.06 20.1641C137.466 19.4818 137.672 18.7917 137.677 18.0938V17.0625H139.802V18.0938ZM145.333 28.6875H132.318V27.0469H145.333V28.6875ZM158.707 24.5625H153.191V25.7969H157.129V30.4375H155.144V27.3906H147.175V25.7969H151.222V24.5625H145.738V23H158.707V24.5625ZM149.363 17.8594H155.066V16.5625H157.05V22.0625H147.394V16.5625H149.363V17.8594ZM155.066 20.5V19.3281H149.363V20.5H155.066ZM165.642 16.9375C166.642 16.9427 167.549 17.1172 168.361 17.4609C169.174 17.7995 169.814 18.2786 170.283 18.8984C170.757 19.513 170.997 20.224 171.002 21.0312C170.997 21.8438 170.757 22.5625 170.283 23.1875C169.814 23.8073 169.174 24.2865 168.361 24.625C167.549 24.9635 166.642 25.1302 165.642 25.125C164.642 25.1302 163.734 24.9635 162.916 24.625C162.103 24.2865 161.463 23.8073 160.994 23.1875C160.53 22.5625 160.299 21.8438 160.299 21.0312C160.299 20.224 160.53 19.513 160.994 18.8984C161.463 18.2786 162.103 17.7995 162.916 17.4609C163.728 17.1172 164.637 16.9427 165.642 16.9375ZM165.642 18.5625C164.986 18.5573 164.4 18.6562 163.885 18.8594C163.369 19.0573 162.965 19.3438 162.674 19.7188C162.382 20.0938 162.236 20.5312 162.236 21.0312C162.236 21.5365 162.382 21.9766 162.674 22.3516C162.965 22.7214 163.369 23.0052 163.885 23.2031C164.4 23.401 164.986 23.5 165.642 23.5C166.299 23.5 166.882 23.401 167.392 23.2031C167.903 23.0052 168.301 22.7214 168.588 22.3516C168.879 21.9766 169.028 21.5365 169.033 21.0312C169.028 20.5312 168.879 20.0938 168.588 19.7188C168.301 19.3438 167.903 19.0573 167.392 18.8594C166.882 18.6562 166.299 18.5573 165.642 18.5625ZM172.174 28.7031H159.158V27.0938H172.174V28.7031ZM185.594 28.8594H172.578V27.2188H178.062V25.0781H174.078V20.2969H182.125V18.7344H174.062V17.1406H184.094V21.8594H176.078V23.4531H184.422V25.0781H180.047V27.2188H185.594V28.8594ZM194.809 19.4375C194.809 20.3281 194.944 21.1901 195.215 22.0234C195.486 22.8516 195.89 23.5885 196.426 24.2344C196.968 24.875 197.627 25.3594 198.403 25.6875L197.231 27.2812C196.439 26.9219 195.757 26.4089 195.184 25.7422C194.616 25.0703 194.166 24.2812 193.832 23.375C193.499 24.3646 193.036 25.224 192.442 25.9531C191.853 26.6823 191.137 27.2396 190.293 27.625L189.09 25.9688C189.892 25.6302 190.569 25.1276 191.121 24.4609C191.674 23.7891 192.088 23.0208 192.364 22.1562C192.645 21.2917 192.788 20.3854 192.793 19.4375V17.3125H194.809V19.4375ZM201.184 30.4688H199.168V16.2188H201.184V30.4688ZM210.776 18.6406H207.948C207.953 19.2188 208.073 19.776 208.307 20.3125C208.547 20.8438 208.914 21.3229 209.409 21.75C209.904 22.1771 210.521 22.5104 211.26 22.75L210.245 24.2969C209.474 24.0521 208.812 23.6901 208.26 23.2109C207.714 22.7266 207.281 22.1562 206.964 21.5C206.635 22.2188 206.185 22.8385 205.612 23.3594C205.039 23.8802 204.349 24.2708 203.542 24.5312L202.479 23C203.234 22.7552 203.867 22.4062 204.378 21.9531C204.893 21.5 205.279 20.9896 205.534 20.4219C205.789 19.849 205.922 19.2552 205.932 18.6406H203.026V17.0469H210.776V18.6406ZM213.979 19.6719H215.901V21.3281H213.979V24.7969H211.979V16.2188H213.979V19.6719ZM213.979 30.4375H211.979V26.9844H204.401V25.4062H213.979V30.4375ZM227.337 21.7812H229.431V23.4219H227.337V30.4375H225.368V16.2188H227.337V21.7812ZM224.399 19.9375H216.04V18.3438H219.259V16.4375H221.259V18.3438H224.399V19.9375ZM220.259 20.7344C220.946 20.7344 221.563 20.8802 222.11 21.1719C222.662 21.4583 223.095 21.8594 223.407 22.375C223.725 22.8906 223.884 23.474 223.884 24.125C223.884 24.776 223.725 25.3594 223.407 25.875C223.095 26.3906 222.662 26.7943 222.11 27.0859C221.563 27.3724 220.946 27.5156 220.259 27.5156C219.566 27.5156 218.944 27.3724 218.391 27.0859C217.839 26.7943 217.404 26.3906 217.087 25.875C216.774 25.3594 216.618 24.776 216.618 24.125C216.618 23.474 216.774 22.8906 217.087 22.375C217.404 21.8594 217.839 21.4583 218.391 21.1719C218.944 20.8802 219.566 20.7344 220.259 20.7344ZM220.259 22.3438C219.925 22.349 219.626 22.4245 219.36 22.5703C219.1 22.7161 218.894 22.9219 218.743 23.1875C218.597 23.4531 218.524 23.7656 218.524 24.125C218.524 24.4896 218.597 24.8047 218.743 25.0703C218.894 25.3359 219.1 25.5391 219.36 25.6797C219.626 25.8151 219.925 25.8802 220.259 25.875C220.592 25.8802 220.889 25.8151 221.149 25.6797C221.41 25.5391 221.613 25.3359 221.759 25.0703C221.904 24.8047 221.977 24.4896 221.977 24.125C221.977 23.7656 221.904 23.4531 221.759 23.1875C221.613 22.9219 221.41 22.7161 221.149 22.5703C220.889 22.4245 220.592 22.349 220.259 22.3438ZM241.491 30.4375H239.476V16.2188H241.491V30.4375ZM237.226 17.7031C237.226 19.224 237.02 20.6068 236.608 21.8516C236.202 23.0964 235.515 24.2396 234.546 25.2812C233.577 26.3177 232.272 27.224 230.632 28L229.585 26.4062C230.799 25.8333 231.799 25.1953 232.585 24.4922C233.377 23.7891 233.981 23.0104 234.397 22.1562C234.819 21.2969 235.085 20.3333 235.194 19.2656H230.351V17.7031H237.226Z" fill="white"/>
<rect x="13" y="9" width="26" height="26" fill="#D9D9D9"/>
</svg>
