<svg width="350" height="44" viewBox="0 0 350 44" fill="none" xmlns="http://www.w3.org/2000/svg">
<rect width="350" height="44" rx="10" fill="#FEE500"/>
<path d="M126.319 17.5781C126.314 19.1875 126.137 20.6198 125.788 21.875C125.444 23.1302 124.806 24.2995 123.874 25.3828C122.942 26.4661 121.627 27.4323 119.929 28.2812L118.835 26.7812C120.002 26.2031 120.955 25.5807 121.694 24.9141C122.439 24.2422 123.017 23.5052 123.429 22.7031L119.226 23.0938L118.976 21.3906L124.03 21.0859C124.181 20.4714 124.28 19.8333 124.327 19.1719H119.726V17.5781H126.319ZM130.116 21.6719H132.132V23.3125H130.116V30.4062H128.116V16.2188H130.116V21.6719ZM139.74 17.5781C139.734 19.1875 139.557 20.6198 139.208 21.875C138.865 23.1302 138.227 24.2995 137.294 25.3828C136.362 26.4661 135.047 27.4323 133.349 28.2812L132.255 26.7812C133.422 26.2031 134.375 25.5807 135.115 24.9141C135.859 24.2422 136.438 23.5052 136.849 22.7031L132.646 23.0938L132.396 21.3906L137.451 21.0859C137.602 20.4714 137.701 19.8333 137.747 19.1719H133.146V17.5781H139.74ZM143.536 21.6719H145.552V23.3125H143.536V30.4062H141.536V16.2188H143.536V21.6719ZM152.222 16.9531C153.238 16.9531 154.152 17.1146 154.964 17.4375C155.777 17.7604 156.415 18.2188 156.878 18.8125C157.342 19.401 157.576 20.0781 157.582 20.8438C157.576 21.5417 157.389 22.1667 157.019 22.7188C156.649 23.2708 156.134 23.7188 155.472 24.0625C154.816 24.401 154.061 24.6198 153.207 24.7188V27.1406H158.753V28.7812H145.738V27.1406H151.222V24.7109C150.373 24.6172 149.621 24.3984 148.964 24.0547C148.308 23.7109 147.795 23.2656 147.425 22.7188C147.061 22.1667 146.878 21.5417 146.878 20.8438C146.878 20.0781 147.108 19.401 147.566 18.8125C148.03 18.2188 148.668 17.7604 149.48 17.4375C150.293 17.1146 151.207 16.9531 152.222 16.9531ZM152.222 18.5469C151.561 18.5469 150.975 18.6406 150.464 18.8281C149.954 19.0104 149.556 19.276 149.269 19.625C148.988 19.974 148.847 20.3802 148.847 20.8438C148.847 21.3333 148.988 21.7552 149.269 22.1094C149.556 22.4583 149.951 22.7266 150.457 22.9141C150.967 23.0964 151.556 23.1875 152.222 23.1875C152.894 23.1875 153.483 23.0964 153.988 22.9141C154.498 22.7318 154.894 22.4635 155.175 22.1094C155.462 21.7552 155.608 21.3333 155.613 20.8438C155.608 20.375 155.462 19.9688 155.175 19.625C154.894 19.276 154.498 19.0104 153.988 18.8281C153.477 18.6406 152.889 18.5469 152.222 18.5469ZM172.174 28.8594H159.158V27.2188H164.642V25.0781H160.658V20.2969H168.705V18.7344H160.642V17.1406H170.674V21.8594H162.658V23.4531H171.002V25.0781H166.627V27.2188H172.174V28.8594ZM181.389 19.4375C181.389 20.3281 181.524 21.1901 181.795 22.0234C182.066 22.8516 182.47 23.5885 183.006 24.2344C183.548 24.875 184.207 25.3594 184.983 25.6875L183.811 27.2812C183.019 26.9219 182.337 26.4089 181.764 25.7422C181.196 25.0703 180.746 24.2812 180.412 23.375C180.079 24.3646 179.615 25.224 179.022 25.9531C178.433 26.6823 177.717 27.2396 176.873 27.625L175.67 25.9688C176.472 25.6302 177.149 25.1276 177.701 24.4609C178.253 23.7891 178.668 23.0208 178.944 22.1562C179.225 21.2917 179.368 20.3854 179.373 19.4375V17.3125H181.389V19.4375ZM187.764 30.4688H185.748V16.2188H187.764V30.4688ZM197.356 18.6406H194.528C194.533 19.2188 194.653 19.776 194.887 20.3125C195.127 20.8438 195.494 21.3229 195.989 21.75C196.483 22.1771 197.101 22.5104 197.84 22.75L196.825 24.2969C196.054 24.0521 195.392 23.6901 194.84 23.2109C194.293 22.7266 193.861 22.1562 193.543 21.5C193.215 22.2188 192.765 22.8385 192.192 23.3594C191.619 23.8802 190.929 24.2708 190.122 24.5312L189.059 23C189.814 22.7552 190.447 22.4062 190.957 21.9531C191.473 21.5 191.858 20.9896 192.114 20.4219C192.369 19.849 192.502 19.2552 192.512 18.6406H189.606V17.0469H197.356V18.6406ZM200.559 19.6719H202.481V21.3281H200.559V24.7969H198.559V16.2188H200.559V19.6719ZM200.559 30.4375H198.559V26.9844H190.981V25.4062H200.559V30.4375ZM213.917 21.7812H216.01V23.4219H213.917V30.4375H211.948V16.2188H213.917V21.7812ZM210.979 19.9375H202.62V18.3438H205.839V16.4375H207.839V18.3438H210.979V19.9375ZM206.839 20.7344C207.526 20.7344 208.143 20.8802 208.69 21.1719C209.242 21.4583 209.674 21.8594 209.987 22.375C210.305 22.8906 210.464 23.474 210.464 24.125C210.464 24.776 210.305 25.3594 209.987 25.875C209.674 26.3906 209.242 26.7943 208.69 27.0859C208.143 27.3724 207.526 27.5156 206.839 27.5156C206.146 27.5156 205.523 27.3724 204.971 27.0859C204.419 26.7943 203.984 26.3906 203.667 25.875C203.354 25.3594 203.198 24.776 203.198 24.125C203.198 23.474 203.354 22.8906 203.667 22.375C203.984 21.8594 204.419 21.4583 204.971 21.1719C205.523 20.8802 206.146 20.7344 206.839 20.7344ZM206.839 22.3438C206.505 22.349 206.206 22.4245 205.94 22.5703C205.68 22.7161 205.474 22.9219 205.323 23.1875C205.177 23.4531 205.104 23.7656 205.104 24.125C205.104 24.4896 205.177 24.8047 205.323 25.0703C205.474 25.3359 205.68 25.5391 205.94 25.6797C206.206 25.8151 206.505 25.8802 206.839 25.875C207.172 25.8802 207.469 25.8151 207.729 25.6797C207.99 25.5391 208.193 25.3359 208.339 25.0703C208.484 24.8047 208.557 24.4896 208.557 24.125C208.557 23.7656 208.484 23.4531 208.339 23.1875C208.193 22.9219 207.99 22.7161 207.729 22.5703C207.469 22.4245 207.172 22.349 206.839 22.3438ZM228.071 30.4375H226.055V16.2188H228.071V30.4375ZM223.805 17.7031C223.805 19.224 223.6 20.6068 223.188 21.8516C222.782 23.0964 222.095 24.2396 221.126 25.2812C220.157 26.3177 218.852 27.224 217.212 28L216.165 26.4062C217.378 25.8333 218.378 25.1953 219.165 24.4922C219.957 23.7891 220.561 23.0104 220.977 22.1562C221.399 21.2969 221.665 20.3333 221.774 19.2656H216.93V17.7031H223.805Z" fill="#181600"/>
<rect x="13" y="9" width="26" height="26" fill="#D9D9D9"/>
</svg>
