<svg width="80" height="80" viewBox="0 0 80 80" fill="none" xmlns="http://www.w3.org/2000/svg">
<rect width="80" height="80" rx="10" fill="#E5DFFB"/>
<path d="M31.4453 39.5898C30.7031 39.5898 30.1445 39.4023 29.7695 39.0273C29.3945 38.6445 29.207 38.0664 29.207 37.293V32.0547C29.207 31.2812 29.3945 30.707 29.7695 30.332C30.1445 29.957 30.7031 29.7695 31.4453 29.7695H36.7891C37.5312 29.7695 38.0898 29.957 38.4648 30.332C38.8398 30.707 39.0273 31.2812 39.0273 32.0547V37.293C39.0273 38.0664 38.8398 38.6445 38.4648 39.0273C38.0898 39.4023 37.5312 39.5898 36.7891 39.5898H31.4453ZM31.4688 37.9375H36.7539C36.957 37.9375 37.1094 37.8828 37.2109 37.7734C37.3203 37.6641 37.375 37.5039 37.375 37.293V32.0547C37.375 31.8438 37.3203 31.6875 37.2109 31.5859C37.1094 31.4766 36.957 31.4219 36.7539 31.4219H31.4688C31.2656 31.4219 31.1133 31.4766 31.0117 31.5859C30.9102 31.6875 30.8594 31.8438 30.8594 32.0547V37.293C30.8594 37.5039 30.9102 37.6641 31.0117 37.7734C31.1133 37.8828 31.2656 37.9375 31.4688 37.9375ZM33.1094 35.9102C32.9531 35.9102 32.875 35.8203 32.875 35.6406V33.6953C32.875 33.5234 32.9531 33.4375 33.1094 33.4375H35.1133C35.2695 33.4375 35.3477 33.5234 35.3477 33.6953V35.6406C35.3477 35.8203 35.2695 35.9102 35.1133 35.9102H33.1094ZM43.2109 39.5898C42.4609 39.5898 41.8984 39.4023 41.5234 39.0273C41.1484 38.6445 40.9609 38.0664 40.9609 37.293V32.0547C40.9609 31.2812 41.1484 30.707 41.5234 30.332C41.8984 29.957 42.4609 29.7695 43.2109 29.7695H48.543C49.2852 29.7695 49.8438 29.957 50.2188 30.332C50.5938 30.707 50.7812 31.2812 50.7812 32.0547V37.293C50.7812 38.0664 50.5938 38.6445 50.2188 39.0273C49.8438 39.4023 49.2852 39.5898 48.543 39.5898H43.2109ZM43.2344 37.9375H48.5195C48.7305 37.9375 48.8828 37.8828 48.9766 37.7734C49.0781 37.6641 49.1289 37.5039 49.1289 37.293V32.0547C49.1289 31.8438 49.0781 31.6875 48.9766 31.5859C48.8828 31.4766 48.7305 31.4219 48.5195 31.4219H43.2344C43.0234 31.4219 42.8672 31.4766 42.7656 31.5859C42.6641 31.6875 42.6133 31.8438 42.6133 32.0547V37.293C42.6133 37.5039 42.6641 37.6641 42.7656 37.7734C42.8672 37.8828 43.0234 37.9375 43.2344 37.9375ZM44.9336 35.9102C44.7852 35.9102 44.7109 35.8203 44.7109 35.6406V33.6953C44.7109 33.5234 44.7852 33.4375 44.9336 33.4375H46.9375C47.1016 33.4375 47.1836 33.5234 47.1836 33.6953V35.6406C47.1836 35.8203 47.1016 35.9102 46.9375 35.9102H44.9336ZM31.4453 51.3438C30.7031 51.3438 30.1445 51.1562 29.7695 50.7812C29.3945 50.4062 29.207 49.832 29.207 49.0586V43.8086C29.207 43.043 29.3945 42.4727 29.7695 42.0977C30.1445 41.7148 30.7031 41.5234 31.4453 41.5234H36.7891C37.5312 41.5234 38.0898 41.7148 38.4648 42.0977C38.8398 42.4727 39.0273 43.043 39.0273 43.8086V49.0586C39.0273 49.832 38.8398 50.4062 38.4648 50.7812C38.0898 51.1562 37.5312 51.3438 36.7891 51.3438H31.4453ZM31.4688 49.6914H36.7539C36.957 49.6914 37.1094 49.6367 37.2109 49.5273C37.3203 49.4258 37.375 49.2695 37.375 49.0586V43.8203C37.375 43.6016 37.3203 43.4414 37.2109 43.3398C37.1094 43.2305 36.957 43.1758 36.7539 43.1758H31.4688C31.2656 43.1758 31.1133 43.2305 31.0117 43.3398C30.9102 43.4414 30.8594 43.6016 30.8594 43.8203V49.0586C30.8594 49.2695 30.9102 49.4258 31.0117 49.5273C31.1133 49.6367 31.2656 49.6914 31.4688 49.6914ZM33.1094 47.6758C32.9531 47.6758 32.875 47.582 32.875 47.3945V45.4609C32.875 45.2891 32.9531 45.2031 33.1094 45.2031H35.1133C35.2695 45.2031 35.3477 45.2891 35.3477 45.4609V47.3945C35.3477 47.582 35.2695 47.6758 35.1133 47.6758H33.1094ZM41.7578 44.5586C41.6016 44.5586 41.5234 44.4688 41.5234 44.2891V42.3438C41.5234 42.1719 41.6016 42.0859 41.7578 42.0859H43.7617C43.918 42.0859 43.9961 42.1719 43.9961 42.3438V44.2891C43.9961 44.4688 43.918 44.5586 43.7617 44.5586H41.7578ZM47.9805 44.5586C47.8242 44.5586 47.7461 44.4688 47.7461 44.2891V42.3438C47.7461 42.1719 47.8242 42.0859 47.9805 42.0859H49.9844C50.1406 42.0859 50.2188 42.1719 50.2188 42.3438V44.2891C50.2188 44.4688 50.1406 44.5586 49.9844 44.5586H47.9805ZM44.8984 47.6758C44.7422 47.6758 44.6641 47.582 44.6641 47.3945V45.4609C44.6641 45.2891 44.7422 45.2031 44.8984 45.2031H46.9023C47.0586 45.2031 47.1367 45.2891 47.1367 45.4609V47.3945C47.1367 47.582 47.0586 47.6758 46.9023 47.6758H44.8984ZM41.7578 50.7812C41.6016 50.7812 41.5234 50.6914 41.5234 50.5117V48.5664C41.5234 48.3945 41.6016 48.3086 41.7578 48.3086H43.7617C43.918 48.3086 43.9961 48.3945 43.9961 48.5664V50.5117C43.9961 50.6914 43.918 50.7812 43.7617 50.7812H41.7578ZM47.9805 50.7812C47.8242 50.7812 47.7461 50.6914 47.7461 50.5117V48.5664C47.7461 48.3945 47.8242 48.3086 47.9805 48.3086H49.9844C50.1406 48.3086 50.2188 48.3945 50.2188 48.5664V50.5117C50.2188 50.6914 50.1406 50.7812 49.9844 50.7812H47.9805Z" fill="black"/>
</svg>
