<svg width="80" height="80" viewBox="0 0 80 80" fill="none" xmlns="http://www.w3.org/2000/svg">
<rect width="80" height="80" rx="10" fill="#E5DFFB"/>
<path d="M39.6406 35.6172C40.3906 35.75 41.0156 35.9453 41.5156 36.2031C42.0156 36.4531 42.4492 36.7656 42.8164 37.1406C43.7695 38.0859 44.4023 39.1289 44.7148 40.2695C45.0273 41.4023 45.0234 42.5352 44.7031 43.668C44.3906 44.8008 43.7656 45.8359 42.8281 46.7734L38.8203 50.793C37.8906 51.7227 36.8594 52.3438 35.7266 52.6562C34.5938 52.9766 33.457 52.9805 32.3164 52.668C31.1836 52.3555 30.1406 51.7227 29.1875 50.7695C28.2422 49.8242 27.6133 48.7852 27.3008 47.6523C26.9883 46.5117 26.9883 45.375 27.3008 44.2422C27.6211 43.1094 28.2461 42.0742 29.1758 41.1367L32.6211 37.7031C32.5586 38.0859 32.5469 38.4883 32.5859 38.9102C32.6328 39.3242 32.7383 39.7148 32.9023 40.082L30.6055 42.3789C29.9258 43.0586 29.4727 43.8086 29.2461 44.6289C29.0195 45.4492 29.0195 46.2734 29.2461 47.1016C29.4727 47.9219 29.9258 48.6758 30.6055 49.3633C31.2852 50.043 32.0352 50.4922 32.8555 50.7109C33.6836 50.9375 34.5078 50.9375 35.3281 50.7109C36.1484 50.4844 36.8984 50.0312 37.5781 49.3516L41.4102 45.5312C42.0898 44.8516 42.5391 44.1016 42.7578 43.2812C42.9844 42.4609 42.9844 41.6406 42.7578 40.8203C42.5312 39.9922 42.0781 39.2344 41.3984 38.5469C41.0156 38.1641 40.5586 37.8594 40.0273 37.6328C39.5039 37.4062 38.8555 37.2617 38.082 37.1992L39.6406 35.6172ZM39.3477 45.2734C38.5977 45.1406 37.9727 44.9492 37.4727 44.6992C36.9727 44.4414 36.5391 44.125 36.1719 43.75C35.2188 42.8047 34.5859 41.7656 34.2734 40.6328C33.9609 39.4922 33.9609 38.3555 34.2734 37.2227C34.5938 36.0898 35.2227 35.0547 36.1602 34.1172L40.1562 30.1094C41.0938 29.1719 42.1289 28.5469 43.2617 28.2344C44.3945 27.9141 45.5273 27.9102 46.6602 28.2227C47.8008 28.5352 48.8477 29.168 49.8008 30.1211C50.7461 31.0664 51.375 32.1094 51.6875 33.25C52 34.3828 51.9961 35.5156 51.6758 36.6484C51.3633 37.7812 50.7422 38.8164 49.8125 39.7539L46.3672 43.1875C46.4297 42.8047 46.4375 42.4062 46.3906 41.9922C46.3516 41.5781 46.25 41.1836 46.0859 40.8086L48.3828 38.5117C49.0625 37.832 49.5156 37.082 49.7422 36.2617C49.9688 35.4414 49.9688 34.6211 49.7422 33.8008C49.5156 32.9727 49.0625 32.2188 48.3828 31.5391C47.6953 30.8516 46.9414 30.3984 46.1211 30.1797C45.3008 29.9531 44.4805 29.9531 43.6602 30.1797C42.8398 30.4062 42.0859 30.8594 41.3984 31.5391L37.5781 35.3594C36.8984 36.0391 36.4453 36.7891 36.2188 37.6094C35.9922 38.4297 35.9922 39.2539 36.2188 40.082C36.4453 40.9023 36.9023 41.6562 37.5898 42.3438C37.9727 42.7266 38.4258 43.0312 38.9492 43.2578C39.4805 43.4844 40.1328 43.6289 40.9062 43.6914L39.3477 45.2734Z" fill="black"/>
</svg>
