<svg width="100" height="100" viewBox="0 0 100 100" fill="none" xmlns="http://www.w3.org/2000/svg">
<rect width="100" height="100" rx="5" fill="#E5DFFB"/>
<path d="M29.4805 76.6836C27.918 76.6836 26.6875 76.332 25.7891 75.6289C24.9102 74.9453 24.4707 73.998 24.4707 72.7871C24.4707 70.9121 25.0371 68.9297 26.1699 66.8398C27.3027 64.75 28.9434 62.7969 31.0918 60.9805C33.2402 59.1445 35.8281 57.6602 38.8555 56.5273C41.9023 55.375 45.3203 54.7988 49.1094 54.7988C52.918 54.7988 56.3359 55.375 59.3633 56.5273C62.4102 57.6602 64.998 59.1445 67.127 60.9805C69.2754 62.7969 70.916 64.75 72.0488 66.8398C73.2012 68.9297 73.7773 70.9121 73.7773 72.7871C73.7773 73.998 73.3281 74.9453 72.4297 75.6289C71.5508 76.332 70.3301 76.6836 68.7676 76.6836H29.4805ZM49.1387 49.5547C47.0488 49.5547 45.1152 48.9883 43.3379 47.8555C41.5605 46.7031 40.125 45.1602 39.0312 43.2266C37.957 41.2734 37.4199 39.0859 37.4199 36.6641C37.4199 34.2812 37.957 32.1328 39.0312 30.2188C40.125 28.3047 41.5605 26.791 43.3379 25.6777C45.1152 24.5645 47.0488 24.0078 49.1387 24.0078C51.2285 24.0078 53.1621 24.5547 54.9395 25.6484C56.7168 26.7422 58.1426 28.2461 59.2168 30.1602C60.3105 32.0547 60.8574 34.2031 60.8574 36.6055C60.8574 39.0469 60.3105 41.2441 59.2168 43.1973C58.1426 45.1504 56.7168 46.7031 54.9395 47.8555C53.1621 48.9883 51.2285 49.5547 49.1387 49.5547Z" fill="white"/>
</svg>
