<svg width="100" height="100" viewBox="0 0 100 100" fill="none" xmlns="http://www.w3.org/2000/svg">
<rect width="100" height="100" rx="10" fill="#F4F4FA"/>
<path d="M39.7891 60.3438C38.5625 60.3438 37.6406 60.0391 37.0234 59.4297C36.4141 58.8281 36.1094 57.9219 36.1094 56.7109V44.4414C36.1094 43.2383 36.4141 42.3359 37.0234 41.7344C37.6406 41.125 38.5625 40.8203 39.7891 40.8203H43.0586C43.5195 40.8203 43.8594 40.7656 44.0781 40.6562C44.2969 40.5391 44.5352 40.3359 44.793 40.0469L45.7305 38.9922C46.0273 38.6719 46.3477 38.4258 46.6914 38.2539C47.043 38.082 47.5195 37.9961 48.1211 37.9961H52.7969C53.3984 37.9961 53.875 38.082 54.2266 38.2539C54.5781 38.4258 54.8984 38.6719 55.1875 38.9922L56.125 40.0469C56.3047 40.2422 56.4648 40.3984 56.6055 40.5156C56.7539 40.625 56.9219 40.7031 57.1094 40.75C57.2969 40.7969 57.5469 40.8203 57.8594 40.8203H61.2109C62.4297 40.8203 63.3477 41.125 63.9648 41.7344C64.582 42.3359 64.8906 43.2383 64.8906 44.4414V56.7109C64.8906 57.9219 64.582 58.8281 63.9648 59.4297C63.3477 60.0391 62.4297 60.3438 61.2109 60.3438H39.7891ZM39.8125 58.457H61.1758C61.7539 58.457 62.2031 58.3047 62.5234 58C62.8438 57.6875 63.0039 57.2266 63.0039 56.6172V44.5469C63.0039 43.9375 62.8438 43.4805 62.5234 43.1758C62.2031 42.8633 61.7539 42.707 61.1758 42.707H57.3906C56.8594 42.707 56.4297 42.6484 56.1016 42.5312C55.7812 42.4062 55.4727 42.1797 55.1758 41.8516L54.2617 40.8203C53.9258 40.4453 53.6289 40.1953 53.3711 40.0703C53.1133 39.9453 52.7266 39.8828 52.2109 39.8828H48.707C48.1914 39.8828 47.8047 39.9453 47.5469 40.0703C47.2891 40.1953 46.9922 40.4453 46.6562 40.8203L45.7422 41.8516C45.4453 42.1797 45.1328 42.4062 44.8047 42.5312C44.4844 42.6484 44.0586 42.707 43.5273 42.707H39.8125C39.2344 42.707 38.7852 42.8633 38.4648 43.1758C38.1523 43.4805 37.9961 43.9375 37.9961 44.5469V56.6172C37.9961 57.2266 38.1523 57.6875 38.4648 58C38.7852 58.3047 39.2344 58.457 39.8125 58.457ZM50.5 56.7695C49.6094 56.7695 48.7773 56.6055 48.0039 56.2773C47.2305 55.9492 46.5508 55.4922 45.9648 54.9062C45.3867 54.3203 44.9297 53.6406 44.5938 52.8672C44.2656 52.0938 44.1016 51.2578 44.1016 50.3594C44.1016 49.4688 44.2656 48.6367 44.5938 47.8633C44.9297 47.0898 45.3867 46.4102 45.9648 45.8242C46.5508 45.2383 47.2305 44.7812 48.0039 44.4531C48.7773 44.125 49.6094 43.9609 50.5 43.9609C51.6797 43.9609 52.7539 44.2461 53.7227 44.8164C54.6914 45.3867 55.4609 46.1562 56.0312 47.125C56.6016 48.0938 56.8867 49.1719 56.8867 50.3594C56.8867 51.2578 56.7227 52.0938 56.3945 52.8672C56.0664 53.6406 55.6094 54.3203 55.0234 54.9062C54.4375 55.4922 53.7578 55.9492 52.9844 56.2773C52.2109 56.6055 51.3828 56.7695 50.5 56.7695ZM50.5 54.9883C51.3516 54.9883 52.125 54.7812 52.8203 54.3672C53.5234 53.9531 54.082 53.3984 54.4961 52.7031C54.9102 52 55.1172 51.2188 55.1172 50.3594C55.1172 49.5078 54.9102 48.7344 54.4961 48.0391C54.082 47.3359 53.5234 46.7773 52.8203 46.3633C52.125 45.9414 51.3516 45.7305 50.5 45.7305C49.6484 45.7305 48.8711 45.9414 48.168 46.3633C47.4727 46.7773 46.9141 47.3359 46.4922 48.0391C46.0781 48.7344 45.8711 49.5078 45.8711 50.3594C45.8711 51.2188 46.0781 52 46.4922 52.7031C46.9141 53.3984 47.4727 53.9531 48.168 54.3672C48.8711 54.7812 49.6484 54.9883 50.5 54.9883ZM57.3672 46.0469C57.3672 45.6562 57.5117 45.3164 57.8008 45.0273C58.0898 44.7383 58.4375 44.5938 58.8438 44.5938C59.2344 44.5938 59.5742 44.7383 59.8633 45.0273C60.1523 45.3164 60.2969 45.6562 60.2969 46.0469C60.2969 46.4531 60.1523 46.7969 59.8633 47.0781C59.5742 47.3594 59.2344 47.5 58.8438 47.5C58.4375 47.5078 58.0898 47.3711 57.8008 47.0898C57.5117 46.8086 57.3672 46.4609 57.3672 46.0469Z" fill="#908F9C"/>
</svg>
