<svg width="80" height="80" viewBox="0 0 80 80" fill="none" xmlns="http://www.w3.org/2000/svg">
<rect width="80" height="80" rx="10" fill="#F4F4FA"/>
<path d="M50.0078 45.3984C50.0078 46.3359 49.7865 47.0456 49.3438 47.5273C48.901 48.0156 48.237 48.2598 47.3516 48.2598H30.9844C30.2552 48.2598 29.7083 48.0352 29.3438 47.5859C28.9792 47.1432 28.7806 46.4792 28.748 45.5938L32.4688 42.2344C32.6706 42.0521 32.8757 41.9154 33.084 41.8242C33.2923 41.7331 33.5072 41.6875 33.7285 41.6875C33.9564 41.6875 34.181 41.7363 34.4023 41.834C34.6302 41.9251 34.8451 42.0618 35.0469 42.2441L36.8535 43.875L41.2676 39.9297C41.4954 39.7344 41.7298 39.5879 41.9707 39.4902C42.2116 39.3926 42.4655 39.3438 42.7324 39.3438C42.9993 39.3438 43.2565 39.3958 43.5039 39.5C43.7513 39.6042 43.9857 39.7539 44.207 39.9492L50.0078 45.3984ZM35.2617 40.0469C34.8385 40.0469 34.4512 39.946 34.0996 39.7441C33.7546 39.5358 33.4779 39.2559 33.2695 38.9043C33.0612 38.5527 32.957 38.1654 32.957 37.7422C32.957 37.3255 33.0612 36.9414 33.2695 36.5898C33.4779 36.2383 33.7546 35.9583 34.0996 35.75C34.4512 35.5417 34.8385 35.4375 35.2617 35.4375C35.6849 35.4375 36.069 35.5417 36.4141 35.75C36.7591 35.9583 37.0358 36.2383 37.2441 36.5898C37.4525 36.9414 37.5566 37.3255 37.5566 37.7422C37.5566 38.1654 37.4525 38.5527 37.2441 38.9043C37.0358 39.2559 36.7591 39.5358 36.4141 39.7441C36.069 39.946 35.6849 40.0469 35.2617 40.0469ZM31.0527 48.9434C30.0306 48.9434 29.2624 48.6895 28.748 48.1816C28.2402 47.6803 27.9863 46.9284 27.9863 45.9258V33.9922C27.9863 32.9831 28.2402 32.2279 28.748 31.7266C29.2624 31.2188 30.0306 30.9648 31.0527 30.9648H47.9473C48.9759 30.9648 49.7441 31.2188 50.252 31.7266C50.7598 32.2344 51.0137 32.9896 51.0137 33.9922V45.9258C51.0137 46.9284 50.7598 47.6803 50.252 48.1816C49.7441 48.6895 48.9759 48.9434 47.9473 48.9434H31.0527ZM31.0723 47.3711H47.9277C48.4095 47.3711 48.7806 47.2441 49.041 46.9902C49.3079 46.7298 49.4414 46.3457 49.4414 45.8379V34.0801C49.4414 33.5723 49.3079 33.1882 49.041 32.9277C48.7806 32.6673 48.4095 32.5371 47.9277 32.5371H31.0723C30.584 32.5371 30.2096 32.6673 29.9492 32.9277C29.6888 33.1882 29.5586 33.5723 29.5586 34.0801V45.8379C29.5586 46.3457 29.6888 46.7298 29.9492 46.9902C30.2096 47.2441 30.584 47.3711 31.0723 47.3711Z" fill="#908F9C"/>
</svg>
