<svg width="19" height="19" viewBox="0 0 19 19" fill="none" xmlns="http://www.w3.org/2000/svg">
<circle cx="9.5" cy="9.5" r="7.5" fill="#3DA2FF"/>
<path d="M9.36719 17.3281C8.27865 17.3281 7.2526 17.1198 6.28906 16.7031C5.33073 16.2865 4.48438 15.7109 3.75 14.9766C3.01562 14.2422 2.4401 13.3958 2.02344 12.4375C1.60677 11.474 1.39844 10.4479 1.39844 9.35938C1.39844 8.27083 1.60677 7.2474 2.02344 6.28906C2.4401 5.32552 3.01302 4.47656 3.74219 3.74219C4.47656 3.00781 5.32292 2.43229 6.28125 2.01562C7.24479 1.59896 8.27083 1.39062 9.35938 1.39062C10.4479 1.39062 11.474 1.59896 12.4375 2.01562C13.401 2.43229 14.25 3.00781 14.9844 3.74219C15.7188 4.47656 16.2943 5.32552 16.7109 6.28906C17.1276 7.2474 17.3359 8.27083 17.3359 9.35938C17.3359 10.4479 17.1276 11.474 16.7109 12.4375C16.2943 13.3958 15.7188 14.2422 14.9844 14.9766C14.25 15.7109 13.401 16.2865 12.4375 16.7031C11.4792 17.1198 10.4557 17.3281 9.36719 17.3281ZM9.36719 16C10.2891 16 11.151 15.8281 11.9531 15.4844C12.7604 15.1406 13.4661 14.6667 14.0703 14.0625C14.6797 13.4531 15.1536 12.7474 15.4922 11.9453C15.8359 11.1432 16.0078 10.2812 16.0078 9.35938C16.0078 8.4375 15.8359 7.57552 15.4922 6.77344C15.1484 5.97135 14.6719 5.26562 14.0625 4.65625C13.4531 4.04688 12.7474 3.57292 11.9453 3.23438C11.1432 2.89062 10.2812 2.71875 9.35938 2.71875C8.4375 2.71875 7.57552 2.89062 6.77344 3.23438C5.97135 3.57292 5.26823 4.04688 4.66406 4.65625C4.0599 5.26562 3.58594 5.97135 3.24219 6.77344C2.90365 7.57552 2.73438 8.4375 2.73438 9.35938C2.73438 10.2812 2.90365 11.1432 3.24219 11.9453C3.58594 12.7474 4.0599 13.4531 4.66406 14.0625C5.27344 14.6667 5.97917 15.1406 6.78125 15.4844C7.58333 15.8281 8.44531 16 9.36719 16ZM8 13.6484C7.83854 13.6484 7.70312 13.5964 7.59375 13.4922C7.48438 13.388 7.42969 13.2578 7.42969 13.1016C7.42969 12.9453 7.48438 12.8151 7.59375 12.7109C7.70312 12.6068 7.83854 12.5547 8 12.5547H8.96875V8.96875H8.13281C7.97135 8.96875 7.83594 8.91667 7.72656 8.8125C7.61719 8.70833 7.5625 8.57812 7.5625 8.42188C7.5625 8.26562 7.61719 8.13542 7.72656 8.03125C7.83594 7.92708 7.97135 7.875 8.13281 7.875H9.60156C9.79948 7.875 9.95052 7.9401 10.0547 8.07031C10.1589 8.19531 10.2109 8.36458 10.2109 8.57812V12.5547H11.1797C11.3411 12.5547 11.4766 12.6068 11.5859 12.7109C11.6953 12.8151 11.75 12.9453 11.75 13.1016C11.75 13.2578 11.6953 13.388 11.5859 13.4922C11.4766 13.5964 11.3411 13.6484 11.1797 13.6484H8ZM9.29688 6.57031C9.01562 6.57031 8.77604 6.47135 8.57812 6.27344C8.38021 6.07552 8.28125 5.83594 8.28125 5.55469C8.28125 5.26823 8.38021 5.02604 8.57812 4.82812C8.77604 4.63021 9.01562 4.53125 9.29688 4.53125C9.58333 4.53125 9.82292 4.63021 10.0156 4.82812C10.2135 5.02604 10.3125 5.26823 10.3125 5.55469C10.3125 5.83594 10.2135 6.07552 10.0156 6.27344C9.82292 6.47135 9.58333 6.57031 9.29688 6.57031Z" fill="black"/>
</svg>
