<svg width="21" height="18" viewBox="0 0 21 18" fill="none" xmlns="http://www.w3.org/2000/svg">
<path d="M3 6C3 5.44772 3.44772 5 4 5H9L13.5 3.74512L16.4792 1.92771C17.1456 1.52121 18 2.00083 18 2.78141V13.703C18 14.4275 17.2535 14.9115 16.592 14.616L8.5 11L9 15.5L7.5 16L5 11L3.55279 10.2764C3.214 10.107 3 9.76074 3 9.38197V6Z" fill="#3DA2FF"/>
<path d="M1.86768 8.63867V7.52539C1.86768 6.5293 2.13623 5.77002 2.67334 5.24756C3.21533 4.7251 4.00391 4.46387 5.03906 4.46387H7.72705C8.32275 4.40039 8.9502 4.29541 9.60938 4.14893C10.2734 4.00244 10.9448 3.81934 11.6235 3.59961C12.3022 3.37988 12.9663 3.12354 13.6157 2.83057C14.2651 2.53271 14.8779 2.20312 15.4541 1.8418V3.13818C14.8828 3.48975 14.2847 3.80469 13.6597 4.08301C13.0347 4.36133 12.3901 4.60303 11.7261 4.80811C11.062 5.01318 10.3809 5.18652 9.68262 5.32812C8.98926 5.46484 8.28369 5.56982 7.56592 5.64307H5.03906C4.33594 5.64307 3.82812 5.79199 3.51562 6.08984C3.20312 6.38281 3.04688 6.86133 3.04688 7.52539V8.63867C3.04688 9.30273 3.20312 9.78369 3.51562 10.0815C3.82812 10.3745 4.33594 10.521 5.03906 10.521H7.63916C8.34229 10.5942 9.0332 10.6992 9.71191 10.8359C10.3955 10.9727 11.0645 11.1436 11.7188 11.3486C12.3779 11.5537 13.0176 11.7954 13.6377 12.0737C14.2627 12.3521 14.8682 12.6694 15.4541 13.0259V14.3223C14.8584 13.9609 14.2407 13.6362 13.6011 13.3481C12.9663 13.0552 12.3193 12.7988 11.6602 12.5791C11.001 12.3594 10.3369 12.1763 9.66797 12.0298C9.00391 11.8833 8.34229 11.7734 7.68311 11.7002H5.03906C4.00391 11.7002 3.21533 11.439 2.67334 10.9165C2.13623 10.394 1.86768 9.63477 1.86768 8.63867ZM8.91357 11.6562L9.49951 14.7031C9.58252 15.123 9.56055 15.4819 9.43359 15.7798C9.31152 16.0825 9.11621 16.3145 8.84766 16.4756C8.5791 16.6367 8.26904 16.7173 7.91748 16.7173C7.49268 16.7173 7.13379 16.605 6.84082 16.3804C6.55273 16.1606 6.30615 15.8237 6.10107 15.3696L4.35791 11.5171H5.54443L7.19971 15.0474C7.29248 15.2427 7.3877 15.3843 7.48535 15.4722C7.58301 15.5649 7.71973 15.6113 7.89551 15.6113C8.08594 15.6113 8.23486 15.543 8.34229 15.4062C8.45459 15.2744 8.48877 15.0962 8.44482 14.8716L7.80762 11.6562H8.91357ZM6.67969 5.0498H7.85889V11.1143H6.67969V5.0498ZM15.0806 13.6045V2.51562C15.0806 2.13965 15.1563 1.8125 15.3076 1.53418C15.4639 1.25586 15.6812 1.03857 15.9595 0.882324C16.2427 0.726074 16.5698 0.647949 16.9409 0.647949C17.3169 0.647949 17.644 0.726074 17.9224 0.882324C18.2007 1.03857 18.418 1.25586 18.5742 1.53418C18.7305 1.8125 18.8086 2.13965 18.8086 2.51562V13.6045C18.8086 13.9756 18.7305 14.3003 18.5742 14.5786C18.418 14.8618 18.2007 15.0791 17.9224 15.2305C17.644 15.3867 17.3169 15.4648 16.9409 15.4648C16.5698 15.4648 16.2427 15.3867 15.9595 15.2305C15.6812 15.0791 15.4639 14.8618 15.3076 14.5786C15.1563 14.3003 15.0806 13.9756 15.0806 13.6045ZM16.2598 13.6045C16.2598 13.8096 16.3208 13.9731 16.4429 14.0952C16.5698 14.2222 16.7358 14.2856 16.9409 14.2856C17.146 14.2856 17.312 14.2222 17.439 14.0952C17.5659 13.9731 17.6294 13.8096 17.6294 13.6045V2.51562C17.6294 2.30566 17.5659 2.13965 17.439 2.01758C17.312 1.89063 17.146 1.82715 16.9409 1.82715C16.7358 1.82715 16.5698 1.89063 16.4429 2.01758C16.3208 2.13965 16.2598 2.30566 16.2598 2.51562V13.6045Z" fill="black"/>
</svg>
