<svg width="19" height="19" viewBox="0 0 19 19" fill="none" xmlns="http://www.w3.org/2000/svg">
<circle cx="9.5" cy="9.5" r="7.5" fill="#FF443D"/>
<path d="M9.36719 17.3281C8.27865 17.3281 7.2526 17.1198 6.28906 16.7031C5.33073 16.2865 4.48438 15.7109 3.75 14.9766C3.01562 14.2422 2.4401 13.3958 2.02344 12.4375C1.60677 11.474 1.39844 10.4479 1.39844 9.35938C1.39844 8.27083 1.60677 7.2474 2.02344 6.28906C2.4401 5.32552 3.01302 4.47656 3.74219 3.74219C4.47656 3.00781 5.32292 2.43229 6.28125 2.01562C7.24479 1.59896 8.27083 1.39062 9.35938 1.39062C10.4479 1.39062 11.474 1.59896 12.4375 2.01562C13.401 2.43229 14.25 3.00781 14.9844 3.74219C15.7188 4.47656 16.2943 5.32552 16.7109 6.28906C17.1276 7.2474 17.3359 8.27083 17.3359 9.35938C17.3359 10.4479 17.1276 11.474 16.7109 12.4375C16.2943 13.3958 15.7188 14.2422 14.9844 14.9766C14.25 15.7109 13.401 16.2865 12.4375 16.7031C11.4792 17.1198 10.4557 17.3281 9.36719 17.3281ZM9.36719 16C10.2891 16 11.151 15.8281 11.9531 15.4844C12.7604 15.1406 13.4661 14.6667 14.0703 14.0625C14.6797 13.4531 15.1536 12.7474 15.4922 11.9453C15.8359 11.1432 16.0078 10.2812 16.0078 9.35938C16.0078 8.4375 15.8359 7.57552 15.4922 6.77344C15.1484 5.97135 14.6719 5.26562 14.0625 4.65625C13.4531 4.04688 12.7474 3.57292 11.9453 3.23438C11.1432 2.89062 10.2812 2.71875 9.35938 2.71875C8.4375 2.71875 7.57552 2.89062 6.77344 3.23438C5.97135 3.57292 5.26823 4.04688 4.66406 4.65625C4.0599 5.26562 3.58594 5.97135 3.24219 6.77344C2.90365 7.57552 2.73438 8.4375 2.73438 9.35938C2.73438 10.2812 2.90365 11.1432 3.24219 11.9453C3.58594 12.7474 4.0599 13.4531 4.66406 14.0625C5.27344 14.6667 5.97917 15.1406 6.78125 15.4844C7.58333 15.8281 8.44531 16 9.36719 16ZM7.03125 12.9375C6.875 12.9375 6.73958 12.8854 6.625 12.7812C6.51562 12.6771 6.46094 12.5495 6.46094 12.3984C6.46094 12.2578 6.50521 12.1224 6.59375 11.9922L8.58594 9.24219L6.71094 6.66406C6.60156 6.51302 6.54688 6.36198 6.54688 6.21094C6.54688 6.05469 6.60677 5.91927 6.72656 5.80469C6.84635 5.6901 6.98958 5.63281 7.15625 5.63281C7.28646 5.63281 7.39583 5.65885 7.48438 5.71094C7.57292 5.76302 7.66146 5.85156 7.75 5.97656L9.41406 8.39062H9.45312L11.0859 5.98438C11.1693 5.85417 11.2526 5.76302 11.3359 5.71094C11.4245 5.65885 11.5312 5.63281 11.6562 5.63281C11.8229 5.63281 11.9609 5.6875 12.0703 5.79688C12.1849 5.90104 12.2422 6.02865 12.2422 6.17969C12.2422 6.32031 12.1927 6.45833 12.0938 6.59375L10.1172 9.28125L12.0781 11.9609C12.1771 12.0859 12.2266 12.2214 12.2266 12.3672C12.2266 12.5339 12.1667 12.6719 12.0469 12.7812C11.9323 12.8854 11.7865 12.9375 11.6094 12.9375C11.4896 12.9375 11.388 12.9115 11.3047 12.8594C11.2214 12.8073 11.1302 12.7135 11.0312 12.5781L9.34375 10.1719H9.3125L7.625 12.5781C7.52604 12.7135 7.4349 12.8073 7.35156 12.8594C7.26823 12.9115 7.16146 12.9375 7.03125 12.9375Z" fill="black"/>
</svg>
