<svg width="20" height="21" viewBox="0 0 20 21" fill="none" xmlns="http://www.w3.org/2000/svg">
<path d="M9.14544 3.40614C9.53492 2.76527 10.4651 2.76527 10.8546 3.40614L17.7369 14.7307C18.1419 15.3971 17.6622 16.25 16.8823 16.25H3.11767C2.33785 16.25 1.85811 15.3971 2.26311 14.7307L9.14544 3.40614Z" fill="#FF443D"/>
<path d="M3.75 16.7422C3.30729 16.7422 2.92448 16.6458 2.60156 16.4531C2.27865 16.2604 2.02865 16 1.85156 15.6719C1.67969 15.349 1.59375 14.987 1.59375 14.5859C1.59375 14.2161 1.6901 13.8646 1.88281 13.5312L7.90625 3.03125C8.10938 2.67188 8.3776 2.40104 8.71094 2.21875C9.04948 2.03125 9.40104 1.9375 9.76562 1.9375C10.1302 1.9375 10.4792 2.03125 10.8125 2.21875C11.1458 2.40104 11.4141 2.67188 11.6172 3.03125L17.6406 13.5234C17.7344 13.6901 17.8047 13.8646 17.8516 14.0469C17.9036 14.2292 17.9297 14.4089 17.9297 14.5859C17.9297 14.987 17.8411 15.349 17.6641 15.6719C17.4922 16 17.2448 16.2604 16.9219 16.4531C16.599 16.6458 16.2161 16.7422 15.7734 16.7422H3.75ZM3.75781 15.5156H15.7578C16.0286 15.5156 16.2474 15.4193 16.4141 15.2266C16.5859 15.0391 16.6719 14.8255 16.6719 14.5859C16.6719 14.4245 16.6302 14.2708 16.5469 14.125L10.5391 3.625C10.4505 3.47396 10.3359 3.36458 10.1953 3.29688C10.0599 3.22396 9.91667 3.1875 9.76562 3.1875C9.60938 3.1875 9.46094 3.22396 9.32031 3.29688C9.17969 3.36458 9.0651 3.47396 8.97656 3.625L2.96094 14.1172C2.92448 14.1953 2.89844 14.276 2.88281 14.3594C2.86719 14.4375 2.85938 14.513 2.85938 14.5859C2.85938 14.8255 2.9401 15.0391 3.10156 15.2266C3.26823 15.4193 3.48698 15.5156 3.75781 15.5156ZM9.76562 11.4688C9.36458 11.4688 9.15885 11.263 9.14844 10.8516L9.04688 6.71875C9.04167 6.52083 9.10417 6.35677 9.23438 6.22656C9.36979 6.09635 9.54427 6.03125 9.75781 6.03125C9.96615 6.03125 10.138 6.09896 10.2734 6.23438C10.4141 6.36458 10.4818 6.52865 10.4766 6.72656L10.3594 10.8516C10.3542 11.263 10.1562 11.4688 9.76562 11.4688ZM9.76562 14.0078C9.53646 14.0078 9.33854 13.9297 9.17188 13.7734C9.00521 13.612 8.92188 13.4193 8.92188 13.1953C8.92188 12.9714 9.00521 12.7812 9.17188 12.625C9.33854 12.4635 9.53646 12.3828 9.76562 12.3828C9.99479 12.3828 10.1927 12.4609 10.3594 12.6172C10.526 12.7734 10.6094 12.9661 10.6094 13.1953C10.6094 13.4245 10.5234 13.6172 10.3516 13.7734C10.1849 13.9297 9.98958 14.0078 9.76562 14.0078Z" fill="black"/>
</svg>
