<svg width="19" height="19" viewBox="0 0 19 19" fill="none" xmlns="http://www.w3.org/2000/svg">
<circle cx="9.5" cy="9.5" r="7.5" fill="#46D878"/>
<path d="M9.36719 17.3281C8.27865 17.3281 7.2526 17.1198 6.28906 16.7031C5.33073 16.2865 4.48438 15.7109 3.75 14.9766C3.01562 14.2422 2.4401 13.3958 2.02344 12.4375C1.60677 11.474 1.39844 10.4479 1.39844 9.35938C1.39844 8.27083 1.60677 7.2474 2.02344 6.28906C2.4401 5.32552 3.01302 4.47656 3.74219 3.74219C4.47656 3.00781 5.32292 2.43229 6.28125 2.01562C7.24479 1.59896 8.27083 1.39062 9.35938 1.39062C10.4479 1.39062 11.474 1.59896 12.4375 2.01562C13.401 2.43229 14.25 3.00781 14.9844 3.74219C15.7188 4.47656 16.2943 5.32552 16.7109 6.28906C17.1276 7.2474 17.3359 8.27083 17.3359 9.35938C17.3359 10.4479 17.1276 11.474 16.7109 12.4375C16.2943 13.3958 15.7188 14.2422 14.9844 14.9766C14.25 15.7109 13.401 16.2865 12.4375 16.7031C11.4792 17.1198 10.4557 17.3281 9.36719 17.3281ZM9.36719 16C10.2891 16 11.151 15.8281 11.9531 15.4844C12.7604 15.1406 13.4661 14.6667 14.0703 14.0625C14.6797 13.4531 15.1536 12.7474 15.4922 11.9453C15.8359 11.1432 16.0078 10.2812 16.0078 9.35938C16.0078 8.4375 15.8359 7.57552 15.4922 6.77344C15.1484 5.97135 14.6719 5.26562 14.0625 4.65625C13.4531 4.04688 12.7474 3.57292 11.9453 3.23438C11.1432 2.89062 10.2812 2.71875 9.35938 2.71875C8.4375 2.71875 7.57552 2.89062 6.77344 3.23438C5.97135 3.57292 5.26823 4.04688 4.66406 4.65625C4.0599 5.26562 3.58594 5.97135 3.24219 6.77344C2.90365 7.57552 2.73438 8.4375 2.73438 9.35938C2.73438 10.2812 2.90365 11.1432 3.24219 11.9453C3.58594 12.7474 4.0599 13.4531 4.66406 14.0625C5.27344 14.6667 5.97917 15.1406 6.78125 15.4844C7.58333 15.8281 8.44531 16 9.36719 16ZM8.50781 13.0625C8.3776 13.0625 8.25781 13.0339 8.14844 12.9766C8.04427 12.9193 7.94271 12.8281 7.84375 12.7031L5.9375 10.3594C5.81771 10.1979 5.75781 10.0365 5.75781 9.875C5.75781 9.70312 5.8151 9.55729 5.92969 9.4375C6.04948 9.3125 6.19271 9.25 6.35938 9.25C6.46875 9.25 6.56771 9.27344 6.65625 9.32031C6.75 9.36198 6.84375 9.44531 6.9375 9.57031L8.47656 11.5625L11.7188 6.35938C11.8646 6.125 12.0469 6.00781 12.2656 6.00781C12.4271 6.00781 12.5729 6.0599 12.7031 6.16406C12.8333 6.26823 12.8984 6.40625 12.8984 6.57812C12.8984 6.66667 12.8776 6.75521 12.8359 6.84375C12.7995 6.92708 12.7578 7.00521 12.7109 7.07812L9.14062 12.7031C8.98438 12.9427 8.77344 13.0625 8.50781 13.0625Z" fill="black"/>
</svg>
